<?xml version="1.0" encoding="utf-8"?>
<!-- Generator: Adobe Illustrator 21.0.0, SVG Export Plug-In . SVG Version: 6.00 Build 0)  -->
<svg version="1.1" id="Слой_1" xmlns="http://www.w3.org/2000/svg" xmlns:xlink="http://www.w3.org/1999/xlink" x="0px" y="0px"
	 viewBox="0 0 927 243" style="enable-background:new 0 0 927 243;" xml:space="preserve">
<style type="text/css">
	.st0{fill:#A8E83A;}
	.st1{fill:#FFFFFF;}
	.st2{display:none;fill:none;stroke:#6CB504;stroke-miterlimit:10;}
	.st3{fill:none;stroke:#6CB504;stroke-miterlimit:10;}
	.st4{fill:#6CB504;}
	.st5{fill:#73CC00;}
	.st6{fill:#77DD00;}
	.st7{fill:#73CC00;stroke:#000000;stroke-width:0.25;stroke-miterlimit:10;}
</style>
<polygon class="st0" points="182.8,92.7 183.6,56.4 232,51.9 186.1,5.8 131.9,56.4 79.4,5.8 39.8,5.8 0.2,5.8 92.7,98.7 27.7,237 
	"/>
<g>
	<g>
		<path class="st1" d="M790.6-9.9c1.9,0,1.9-3,0-3C788.7-12.9,788.7-9.9,790.6-9.9L790.6-9.9z"/>
	</g>
</g>
<g>
	<g>
		<path class="st0" d="M182.6,55.6c0-9.1,0-18.3,0-27.4c0-4.8-1.1-11.4,1.3-15.7c1.1-1.9,2.4-2.9,2.7-5.2c0.2-1.9-2.8-1.9-3,0
			c-0.2,2.6-3.3,4.5-3.9,7.3c-0.8,3.9-0.1,8.7-0.1,12.6c0,9.5,0,18.9,0,28.4C179.6,57.6,182.6,57.6,182.6,55.6L182.6,55.6z"/>
	</g>
</g>
<polygon class="st2" points="699.5,271.5 701.5,204.5 752.6,260 757.5,265.5 744.8,267.4 719,270 "/>
<polygon class="st2" points="574.5,204.5 590.5,327.5 484.7,210.2 479.5,204.5 "/>
<polygon class="st3" points="131.5,56 160.7,80.9 160.7,31.5 145.7,43.5 136.8,51.9 "/>
<polygon class="st3" points="131.5,56 160.7,31.8 185.1,7.3 183.2,92.3 29.9,232.3 137.4,117.2 141.5,111.9 141.5,105.1 141.5,98.3 
	138.2,91.5 84.1,40.8 79,5.4 "/>
<line class="st3" x1="92.3" y1="98.3" x2="98.4" y2="158.9"/>
<polygon class="st4" points="160.7,80.9 160.7,31.8 184.9,7.6 183.2,92.3 29.9,234.9 141.5,111.9 141.5,101.7 141.5,98.3 
	139.3,93.9 85.7,42.3 84,40.9 79,5.4 131.5,56 "/>
<polygon class="st5" points="98.4,158.9 84.4,41.3 139.4,94.2 141.9,98.7 141.9,112.3 "/>
<polygon class="st5" points="160.3,80.6 160.3,31.4 131.6,55.2 131.1,55.6 "/>
<polygon class="st6" points="27.7,237 91,99.8 91.4,99 98.6,159.2 "/>
<polygon class="st0" points="0.2,5.8 91.1,98.7 78.6,5 "/>
<g>
	<g>
		<path class="st1" d="M183.9,7.4c-0.3,0.2,0.1,0,0.2,0c0.1,0,1.4-0.7,0.4-0.3c-0.4-0.9-0.8-1.8-1.2-2.7c-0.2,0.1-0.3,0.2-0.4,0.3
			c0,0-0.4,0.4-0.2,0.3c-0.2,0.3-0.4,0.5-0.6,0.8c-0.4,0.6-0.2,1.5,0.4,1.9c0.6,0.5,1.4,0.4,2-0.1c0.2-0.2,0.6-0.6,0.7-0.8
			c0.1-0.2,0-0.1-0.3,0.2c0.1,0,0.2-0.1,0.3-0.2c0.2-0.2,0.4-0.3,0.5-0.6c-0.9-0.4-1.8-0.8-2.7-1.2c0,0,0,0.1,0,0.1
			c0.1-0.2,0.3-0.4,0.4-0.7c-0.1,0.1,0,0,0.1,0c-0.2,0.2-0.4,0.3-0.5,0.5c-0.1,0.2-0.3,0.4-0.4,0.6c0.2-0.2,0.4-0.4,0.5-0.5
			c-0.5,0.3-0.8,0.6-1,1.2c0.1-0.2,0.3-0.4,0.4-0.7c0,0,0,0.1-0.1,0.1c0.2-0.1,0.4-0.3,0.7-0.4c-0.8,0.2-1.2,0.9-1.3,1.7
			c0,0.8,0.7,1.5,1.5,1.5c0.9,0,1.4-0.7,1.5-1.5c0,0.2,0.1-0.1,0,0c0,0-0.4,0.3-0.4,0.3c0,0,0,0,0,0c0.1,0,0.3,0,0.4-0.1
			c0.2,0,0.4-0.1,0.6-0.2c0.6-0.3,0.8-1.1,0.7-1.7c-0.1-0.6-0.6-1-1.2-1.2c-0.6-0.2-1-0.1-1.5,0.2c-0.7,0.3-0.9,1.4-0.5,2.1
			c0.4,0.8,1.3,0.9,2.1,0.5c0,0,0.1,0,0.1-0.1c-0.3,0.1-0.5,0.1-0.8,0.2c0,0-0.1,0-0.1,0c-0.2-0.1-0.4-0.3-0.7-0.4
			c0,0,0.1,0.1,0.1,0.1c-0.1-0.2-0.3-0.4-0.4-0.7c0,0,0,0,0,0c0.2-0.6,0.5-1.1,0.7-1.7c0.1-0.1,0.3-0.1,0.4-0.2
			c-0.1,0-0.3,0-0.4,0.1c-0.2,0-0.3,0.1-0.5,0.2c-0.3,0.1-0.6,0.3-0.8,0.5c-0.5,0.5-0.6,1.2-0.7,1.9c1,0,2,0,3,0c0,0,0-0.1,0-0.1
			c-0.1,0.4-0.3,0.7-0.4,1.1c0,0,0.1-0.1,0.1-0.1c-0.2,0.1-0.4,0.3-0.7,0.4c0.4-0.1,0.8-0.4,1-0.8c0.1-0.1,0.1-0.2,0.2-0.4
			c-0.5,0.6-0.7,0.8-0.4,0.6c0.2-0.1,0.4-0.3,0.6-0.6c0-0.1,0.1-0.1,0.1-0.2c0.1-0.2,0.1-0.1-0.1,0c-0.2,0.2-0.2,0.2,0,0
			c0.4-0.2,0.6-0.6,0.7-1c0.2-0.7-0.2-1.5-0.9-1.8c-0.7-0.3-1.4,0-1.9,0.6c0.3-0.3,0.4-0.4,0.3-0.3c-0.1,0.1-0.2,0.2-0.4,0.3
			c-0.1,0.1-0.4,0.4-0.3,0.4c0,0.1,0,0.1,0,0c0.1-0.1,0.1-0.1,0,0c-0.1,0.1-0.1,0.2-0.2,0.2c0.8,0.6,1.6,1.2,2.4,1.8
			c-0.1,0.2,0.2-0.2,0.2-0.2c0,0,0.1-0.1,0.1-0.1c0.3-0.4,0.3-0.4,0,0c0.6-0.4,0.9-1.2,0.6-1.9c-0.3-0.6-1.1-1.2-1.8-0.9
			c-0.2,0.1-0.4,0.1-0.5,0.2c-0.1,0-0.1,0.1-0.2,0.2c-0.3,0.2-0.2,0.2,0.2-0.1c-0.2-0.1-0.7,0.2-0.8,0.3c-0.7,0.4-0.9,1.4-0.5,2.1
			C182.2,7.6,183.2,7.9,183.9,7.4L183.9,7.4z"/>
	</g>
</g>
<path class="st7" d="M131.5,55.3"/>
<polyline class="st5" points="131.9,55.6 160.3,29.9 160.3,31.4 "/>
<polyline class="st4" points="182.8,91.9 183.6,91.9 183.6,91.9 184.5,92.7 186.1,5.8 160.3,29.9 "/>
<polyline class="st4" points="114.6,156.1 28,236.4 96.2,173.8 184.4,92.7 173.5,102.8 28.1,236.6 183.9,92.3 184.5,92.7 "/>
<g>
	<g>
		<path class="st4" d="M182,93c1.9,0,1.9-3,0-3C180,90,180,93,182,93L182,93z"/>
	</g>
</g>
<g>
	<g>
		<path class="st4" d="M180.4,93.4c0.1,0,0.2-0.1,0.3-0.1c0.1,0,0.1,0,0,0c-0.1,0-0.1,0,0,0c0.2,0.2,0.6,0.3,0.9,0.3
			c0.8,0.2,1.6,0,2.2-0.6c0.5-0.6,0.6-1.5,0-2.1c-0.5-0.5-1.6-0.6-2.1,0c0.1-0.1,0.7-0.2,0.7-0.2c0,0-0.2,0-0.2,0
			c-0.3-0.2-0.8-0.3-1.1-0.4c-0.8-0.1-1.4,0.2-2.1,0.5c-0.7,0.4-0.9,1.4-0.5,2.1C178.8,93.6,179.7,93.7,180.4,93.4L180.4,93.4z"/>
	</g>
</g>
<g>
	<path d="M281.1,207.8c-6.9,0-13.1-1.9-18.8-5.7c-5.7-3.8-10.6-9.6-14.7-17.3c-4.1-7.8-7.2-17.5-9.4-29c-2.2-11.5-3.3-24.8-3.3-39.8
		c0-14.2,1.1-27,3.3-38.2c2.2-11.3,5.3-20.9,9.4-28.8c4-7.7,8.8-13.7,14.6-17.9c5.8-4.2,12.1-6.3,19-6.3c3.3,0,6.4,0.4,9.4,1.3
		c3,0.9,5.9,2.1,8.6,3.6c2.2,1.2,4.6,2.8,7.3,4.9c2.7,2.1,4.8,3.9,6.5,5.4v28.3h-1.1c-1.6-2.6-3.3-5.1-5-7.4
		c-1.7-2.3-4.1-4.8-7.3-7.5c-2.6-2.4-5.6-4.3-9-5.9c-3.4-1.6-7-2.4-10.9-2.4c-9.3,0-16.9,6.4-22.6,19.2c-5.8,12.8-8.6,29.8-8.6,51.1
		c0,11.8,0.8,22.2,2.3,31c1.5,8.8,3.7,16.3,6.6,22.5c2.8,6.1,6.1,10.7,10.1,13.9c3.9,3.2,8.3,4.8,13.3,4.8c3.6,0,7.3-0.5,10.9-1.4
		c3.6-0.9,6.6-2.4,9.1-4.3v-45.6h-22.4v-20.6h35.2v77c-1.7,1.3-3.9,3-6.6,5.1c-2.8,2.1-5.3,3.7-7.7,4.9c-3.2,1.7-6,3-8.6,3.9
		C287.9,207.3,284.8,207.8,281.1,207.8z"/>
	<path d="M388.4,138.2c0,22.3-3,39.5-8.9,51.6c-5.9,12.1-13.8,18.2-23.6,18.2c-10.1,0-18.1-6.3-23.9-18.8c-5.8-12.5-8.7-29.5-8.7-51
		c0-22.1,3-39.3,9-51.5c6-12.2,13.8-18.4,23.6-18.4c9.8,0,17.7,6.1,23.6,18.3C385.5,98.8,388.4,116,388.4,138.2z M375.8,138.2
		c0-17.1-1.7-29.9-5.1-38.2c-3.4-8.3-8.3-12.5-14.7-12.5c-6.4,0-11.3,4.2-14.8,12.5c-3.5,8.3-5.2,21.1-5.2,38.2
		c0,16.6,1.7,29.2,5.2,37.7c3.5,8.6,8.4,12.9,14.8,12.9c6.3,0,11.2-4.2,14.6-12.6C374.1,167.8,375.8,155.1,375.8,138.2z"/>
	<path d="M460.9,138.2c0,22.3-3,39.5-8.9,51.6c-5.9,12.1-13.8,18.2-23.6,18.2c-10.1,0-18.1-6.3-23.9-18.8c-5.8-12.5-8.7-29.5-8.7-51
		c0-22.1,3-39.3,9-51.5c6-12.2,13.8-18.4,23.6-18.4c9.8,0,17.7,6.1,23.6,18.3C457.9,98.8,460.9,116,460.9,138.2z M448.2,138.2
		c0-17.1-1.7-29.9-5.1-38.2c-3.4-8.3-8.3-12.5-14.7-12.5c-6.4,0-11.3,4.2-14.8,12.5c-3.5,8.3-5.2,21.1-5.2,38.2
		c0,16.6,1.7,29.2,5.2,37.7c3.5,8.6,8.4,12.9,14.8,12.9c6.3,0,11.2-4.2,14.6-12.6C446.5,167.8,448.2,155.1,448.2,138.2z"/>
	<path d="M529.5,204.3h-12.2v-13.5c-1.9,2.9-3.6,5.3-4.9,7.2c-1.4,1.9-3,3.6-4.9,5.2c-1.7,1.5-3.5,2.7-5.4,3.5
		c-1.9,0.8-4,1.2-6.5,1.2c-4,0-7.6-1.5-11-4.5c-3.4-3-6.2-7.4-8.6-13.1c-2.4-5.8-4.2-13-5.5-21.6c-1.3-8.6-2-18.4-2-29.6
		c0-11.6,0.8-21.7,2.5-30.1c1.6-8.5,3.9-15.9,6.8-22.2c2.6-5.8,5.9-10.3,9.6-13.6c3.8-3.3,7.7-4.9,11.8-4.9c3.6,0,6.8,0.7,9.5,2.2
		c2.7,1.5,5.5,3.7,8.5,6.8V20h12.2V204.3z M517.2,172.1V95.8c-3-2.7-5.8-4.5-8.2-5.6c-2.4-1-5-1.5-7.8-1.5
		c-6.3,0-11.2,4.3-14.8,12.9c-3.6,8.6-5.3,20.9-5.3,37.1c0,15.6,1.4,27.5,4.1,35.7c2.7,8.3,7.1,12.4,13.2,12.4c3.2,0,6.4-1.3,9.7-4
		C511.3,180.2,514.3,176.6,517.2,172.1z"/>
	<path d="M580.9,137.9h-36.7v-21.4h36.7V137.9z"/>
	<path d="M654.2,204.3h-15.2l-24.9-61h-6.1v61h-12.2V72h12.2v57.6c3.2-0.1,5.9-1.3,8.1-3.6c2.2-2.3,4.1-6.9,5.7-13.6
		c0.5-2,1-4.3,1.6-6.9s1.1-4.9,1.4-6.9c1.9-9.7,4.6-16.6,7.9-20.6c3.4-4,7.8-6,13.2-6h3.3v19.2h-2.8c-3.4,0-6,1.3-7.7,3.9
		c-1.7,2.6-3.2,7.2-4.3,14c-1.2,6.9-2.6,12.2-4.3,16.1c-1.6,3.8-3.5,6.8-5.5,8.8L654.2,204.3z"/>
	<path d="M702.7,190.2c-1,1.3-2.3,3.2-4,5.6c-1.7,2.4-3.3,4.3-4.9,5.7c-2.2,2.1-4.3,3.6-6.3,4.7c-2,1.1-4.9,1.7-8.5,1.7
		c-3,0-5.8-1-8.5-3.1c-2.7-2.1-5.1-4.9-7.1-8.6c-2-3.6-3.5-8.1-4.7-13.4s-1.8-11-1.8-16.9c0-9.2,1.1-17,3.2-23.4
		c2.1-6.4,5.5-11.6,10.1-15.3c4.1-3.4,8.9-5.7,14.5-7s11.5-2.3,18-2.9V113c0-5.2-0.4-9.4-1.3-12.6c-0.9-3.2-2.1-5.7-3.6-7.4
		c-1.6-1.8-3.5-3-5.7-3.6c-2.3-0.6-4.6-0.9-7-0.9c-2.8,0-6.1,0.8-10,2.3c-3.8,1.5-7.6,3.8-11.5,6.7h-0.7V74.8
		c2.3-1.2,5.5-2.5,9.7-3.9c4.2-1.4,8.4-2.1,12.5-2.1c5,0,9.2,0.7,12.6,2.1c3.4,1.4,6.5,4,9.2,7.7c2.6,3.6,4.6,8.3,5.9,14.1
		c1.3,5.8,2,12.8,2,21.1v90.5h-12.2V190.2z M702.7,171.8V135c-2.9,0.5-6.6,1.1-11,2c-4.5,0.8-8,2-10.8,3.5c-3.3,1.8-5.9,4.6-8.1,8.4
		c-2.1,3.8-3.2,9-3.2,15.7c0,7.6,1.2,13.3,3.5,17.2c2.3,3.9,5.8,5.8,10.3,5.8c3.9,0,7.4-1.5,10.5-4.6
		C697,179.9,700,176.2,702.7,171.8z"/>
	<path d="M761,207.3c-5,0-9.6-1.4-13.7-4.2c-4.2-2.8-7.8-7-10.7-12.7s-5.3-12.9-7-21.5c-1.7-8.6-2.5-18.8-2.5-30.5
		c0-11.6,0.9-21.6,2.6-30.1c1.7-8.5,4-15.6,6.9-21.3c2.9-5.8,6.4-10.2,10.7-13.3c4.3-3.1,8.9-4.7,13.8-4.7c4,0,7.8,1,11.6,3.1
		c3.7,2.1,7,4.4,9.9,7.1v25h-0.7c-0.9-1.3-2-2.9-3.4-4.6c-1.4-1.7-3-3.5-5-5.3c-1.7-1.6-3.7-3-6-4.1c-2.3-1.2-4.5-1.8-6.6-1.8
		c-6.3,0-11.4,4.4-15.3,13.1c-3.8,8.7-5.8,21.1-5.8,37c0,15.6,1.9,27.8,5.6,36.5c3.7,8.7,8.9,13.1,15.5,13.1c4,0,7.8-1.5,11.4-4.5
		c3.6-3,6.8-6.9,9.6-11.6h0.7v25c-1.2,1-2.7,2.3-4.6,3.7c-1.8,1.5-3.5,2.5-4.9,3.3c-2.1,1.1-4,2-5.6,2.5
		C765.7,207,763.6,207.3,761,207.3z"/>
	<path d="M822.5,207.3c-5,0-9.6-1.4-13.7-4.2c-4.2-2.8-7.8-7-10.7-12.7s-5.3-12.9-7-21.5c-1.6-8.6-2.5-18.8-2.5-30.5
		c0-11.6,0.9-21.6,2.6-30.1c1.7-8.5,4-15.6,6.9-21.3c2.9-5.8,6.4-10.2,10.7-13.3c4.3-3.1,8.9-4.7,13.8-4.7c4,0,7.8,1,11.6,3.1
		c3.7,2.1,7,4.4,9.9,7.1v25h-0.7c-0.9-1.3-2-2.9-3.4-4.6c-1.4-1.7-3-3.5-5-5.3c-1.7-1.6-3.7-3-6-4.1c-2.3-1.2-4.5-1.8-6.6-1.8
		c-6.3,0-11.4,4.4-15.3,13.1c-3.8,8.7-5.8,21.1-5.8,37c0,15.6,1.9,27.8,5.6,36.5c3.7,8.7,8.9,13.1,15.5,13.1c4,0,7.8-1.5,11.4-4.5
		c3.6-3,6.8-6.9,9.6-11.6h0.7v25c-1.2,1-2.7,2.3-4.6,3.7c-1.8,1.5-3.5,2.5-4.9,3.3c-2.1,1.1-4,2-5.6,2.5
		C827.3,207,825.2,207.3,822.5,207.3z"/>
	<path d="M895.8,190.2c-1,1.3-2.3,3.2-4,5.6c-1.7,2.4-3.3,4.3-4.9,5.7c-2.2,2.1-4.3,3.6-6.3,4.7c-2,1.1-4.9,1.7-8.5,1.7
		c-3,0-5.8-1-8.5-3.1c-2.7-2.1-5.1-4.9-7.1-8.6c-2-3.6-3.5-8.1-4.7-13.4c-1.2-5.3-1.8-11-1.8-16.9c0-9.2,1.1-17,3.2-23.4
		c2.1-6.4,5.5-11.6,10.1-15.3c4.1-3.4,8.9-5.7,14.5-7s11.5-2.3,18-2.9V113c0-5.2-0.4-9.4-1.3-12.6c-0.9-3.2-2.1-5.7-3.6-7.4
		c-1.6-1.8-3.5-3-5.7-3.6c-2.3-0.6-4.6-0.9-7-0.9c-2.8,0-6.1,0.8-10,2.3c-3.8,1.5-7.6,3.8-11.5,6.7H856V74.8
		c2.3-1.2,5.5-2.5,9.7-3.9c4.2-1.4,8.4-2.1,12.5-2.1c5,0,9.2,0.7,12.6,2.1c3.4,1.4,6.5,4,9.2,7.7c2.6,3.6,4.6,8.3,5.9,14.1
		c1.3,5.8,2,12.8,2,21.1v90.5h-12.2V190.2z M895.8,171.8V135c-2.9,0.5-6.6,1.1-11,2c-4.5,0.8-8,2-10.8,3.5c-3.3,1.8-5.9,4.6-8.1,8.4
		c-2.1,3.8-3.2,9-3.2,15.7c0,7.6,1.2,13.3,3.5,17.2c2.3,3.9,5.8,5.8,10.3,5.8c3.9,0,7.4-1.5,10.5-4.6
		C890.2,179.9,893.1,176.2,895.8,171.8z"/>
</g>
</svg>
