<?xml version="1.0" encoding="utf-8"?>
<!-- Generator: Adobe Illustrator 21.0.0, SVG Export Plug-In . SVG Version: 6.00 Build 0)  -->
<svg version="1.1" id="Слой_1" xmlns="http://www.w3.org/2000/svg" xmlns:xlink="http://www.w3.org/1999/xlink" x="0px" y="0px"
	 viewBox="0 0 794 243" style="enable-background:new 0 0 794 243;" xml:space="preserve">
<style type="text/css">
	.st0{fill:#A8E83A;}
	.st1{fill:#FFFFFF;}
	.st2{display:none;fill:none;stroke:#6CB504;stroke-miterlimit:10;}
	.st3{fill:none;stroke:#6CB504;stroke-miterlimit:10;}
	.st4{fill:#6CB504;}
	.st5{fill:#73CC00;}
	.st6{fill:#77DD00;}
	.st7{fill:#73CC00;stroke:#000000;stroke-width:0.25;stroke-miterlimit:10;}
</style>
<polygon class="st0" points="182.8,92.7 183.6,56.4 232,51.9 186.1,5.8 131.9,56.4 79.4,5.8 39.8,5.8 0.2,5.8 92.7,98.7 27.7,237 
	"/>
<g>
	<g>
		<path class="st1" d="M790.6-9.9c1.9,0,1.9-3,0-3C788.7-12.9,788.7-9.9,790.6-9.9L790.6-9.9z"/>
	</g>
</g>
<g>
	<g>
		<path class="st0" d="M182.6,55.6c0-9.1,0-18.3,0-27.4c0-4.8-1.1-11.4,1.3-15.7c1.1-1.9,2.4-2.9,2.7-5.2c0.2-1.9-2.8-1.9-3,0
			c-0.2,2.6-3.3,4.5-3.9,7.3c-0.8,3.9-0.1,8.7-0.1,12.6c0,9.5,0,18.9,0,28.4C179.6,57.6,182.6,57.6,182.6,55.6L182.6,55.6z"/>
	</g>
</g>
<polygon class="st2" points="699.5,271.5 701.5,204.5 752.6,260 757.5,265.5 744.8,267.4 719,270 "/>
<polygon class="st2" points="574.5,204.5 590.5,327.5 484.7,210.2 479.5,204.5 "/>
<polygon class="st3" points="131.5,56 160.7,80.9 160.7,31.5 145.7,43.5 136.8,51.9 "/>
<polygon class="st3" points="131.5,56 160.7,31.8 185.1,7.3 183.2,92.3 29.9,232.3 137.4,117.2 141.5,111.9 141.5,105.1 141.5,98.3 
	138.2,91.5 84.1,40.8 79,5.4 "/>
<line class="st3" x1="92.3" y1="98.3" x2="98.4" y2="158.9"/>
<polygon class="st4" points="160.7,80.9 160.7,31.8 184.9,7.6 183.2,92.3 29.9,234.9 141.5,111.9 141.5,101.7 141.5,98.3 
	139.3,93.9 85.7,42.3 84,40.9 79,5.4 131.5,56 "/>
<polygon class="st5" points="98.4,158.9 84.4,41.3 139.4,94.2 141.9,98.7 141.9,112.3 "/>
<polygon class="st5" points="160.3,80.6 160.3,31.4 131.6,55.2 131.1,55.6 "/>
<polygon class="st6" points="27.7,237 91,99.8 91.4,99 98.6,159.2 "/>
<polygon class="st0" points="0.2,5.8 91.1,98.7 78.6,5 "/>
<g>
	<g>
		<path class="st1" d="M183.9,7.4c-0.3,0.2,0.1,0,0.2,0c0.1,0,1.4-0.7,0.4-0.3c-0.4-0.9-0.8-1.8-1.2-2.7c-0.2,0.1-0.3,0.2-0.4,0.3
			c0,0-0.4,0.4-0.2,0.3c-0.2,0.3-0.4,0.5-0.6,0.8c-0.4,0.6-0.2,1.5,0.4,1.9c0.6,0.5,1.4,0.4,2-0.1c0.2-0.2,0.6-0.6,0.7-0.8
			c0.1-0.2,0-0.1-0.3,0.2c0.1,0,0.2-0.1,0.3-0.2c0.2-0.2,0.4-0.3,0.5-0.6c-0.9-0.4-1.8-0.8-2.7-1.2c0,0,0,0.1,0,0.1
			c0.1-0.2,0.3-0.4,0.4-0.7c-0.1,0.1,0,0,0.1,0c-0.2,0.2-0.4,0.3-0.5,0.5c-0.1,0.2-0.3,0.4-0.4,0.6c0.2-0.2,0.4-0.4,0.5-0.5
			c-0.5,0.3-0.8,0.6-1,1.2c0.1-0.2,0.3-0.4,0.4-0.7c0,0,0,0.1-0.1,0.1c0.2-0.1,0.4-0.3,0.7-0.4c-0.8,0.2-1.2,0.9-1.3,1.7
			c0,0.8,0.7,1.5,1.5,1.5c0.9,0,1.4-0.7,1.5-1.5c0,0.2,0.1-0.1,0,0c0,0-0.4,0.3-0.4,0.3c0,0,0,0,0,0c0.1,0,0.3,0,0.4-0.1
			c0.2,0,0.4-0.1,0.6-0.2c0.6-0.3,0.8-1.1,0.7-1.7c-0.1-0.6-0.6-1-1.2-1.2c-0.6-0.2-1-0.1-1.5,0.2c-0.7,0.3-0.9,1.4-0.5,2.1
			c0.4,0.8,1.3,0.9,2.1,0.5c0,0,0.1,0,0.1-0.1c-0.3,0.1-0.5,0.1-0.8,0.2c0,0-0.1,0-0.1,0c-0.2-0.1-0.4-0.3-0.7-0.4
			c0,0,0.1,0.1,0.1,0.1c-0.1-0.2-0.3-0.4-0.4-0.7c0,0,0,0,0,0c0.2-0.6,0.5-1.1,0.7-1.7c0.1-0.1,0.3-0.1,0.4-0.2
			c-0.1,0-0.3,0-0.4,0.1c-0.2,0-0.3,0.1-0.5,0.2c-0.3,0.1-0.6,0.3-0.8,0.5c-0.5,0.5-0.6,1.2-0.7,1.9c1,0,2,0,3,0c0,0,0-0.1,0-0.1
			c-0.1,0.4-0.3,0.7-0.4,1.1c0,0,0.1-0.1,0.1-0.1c-0.2,0.1-0.4,0.3-0.7,0.4c0.4-0.1,0.8-0.4,1-0.8c0.1-0.1,0.1-0.2,0.2-0.4
			c-0.5,0.6-0.7,0.8-0.4,0.6c0.2-0.1,0.4-0.3,0.6-0.6c0-0.1,0.1-0.1,0.1-0.2c0.1-0.2,0.1-0.1-0.1,0c-0.2,0.2-0.2,0.2,0,0
			c0.4-0.2,0.6-0.6,0.7-1c0.2-0.7-0.2-1.5-0.9-1.8c-0.7-0.3-1.4,0-1.9,0.6c0.3-0.3,0.4-0.4,0.3-0.3c-0.1,0.1-0.2,0.2-0.4,0.3
			c-0.1,0.1-0.4,0.4-0.3,0.4c0,0.1,0,0.1,0,0c0.1-0.1,0.1-0.1,0,0c-0.1,0.1-0.1,0.2-0.2,0.2c0.8,0.6,1.6,1.2,2.4,1.8
			c-0.1,0.2,0.2-0.2,0.2-0.2c0,0,0.1-0.1,0.1-0.1c0.3-0.4,0.3-0.4,0,0c0.6-0.4,0.9-1.2,0.6-1.9c-0.3-0.6-1.1-1.2-1.8-0.9
			c-0.2,0.1-0.4,0.1-0.5,0.2c-0.1,0-0.1,0.1-0.2,0.2c-0.3,0.2-0.2,0.2,0.2-0.1c-0.2-0.1-0.7,0.2-0.8,0.3c-0.7,0.4-0.9,1.4-0.5,2.1
			C182.2,7.6,183.2,7.9,183.9,7.4L183.9,7.4z"/>
	</g>
</g>
<path class="st7" d="M131.5,55.3"/>
<polyline class="st5" points="131.9,55.6 160.3,29.9 160.3,31.4 "/>
<polyline class="st4" points="182.8,91.9 183.6,91.9 183.6,91.9 184.5,92.7 186.1,5.8 160.3,29.9 "/>
<polyline class="st4" points="114.6,156.1 28,236.4 96.2,173.8 184.4,92.7 173.5,102.8 28.1,236.6 183.9,92.3 184.5,92.7 "/>
<g>
	<g>
		<path class="st4" d="M182,93c1.9,0,1.9-3,0-3C180,90,180,93,182,93L182,93z"/>
	</g>
</g>
<g>
	<g>
		<path class="st4" d="M180.4,93.4c0.1,0,0.2-0.1,0.3-0.1c0.1,0,0.1,0,0,0c-0.1,0-0.1,0,0,0c0.2,0.2,0.6,0.3,0.9,0.3
			c0.8,0.2,1.6,0,2.2-0.6c0.5-0.6,0.6-1.5,0-2.1c-0.5-0.5-1.6-0.6-2.1,0c0.1-0.1,0.7-0.2,0.7-0.2c0,0-0.2,0-0.2,0
			c-0.3-0.2-0.8-0.3-1.1-0.4c-0.8-0.1-1.4,0.2-2.1,0.5c-0.7,0.4-0.9,1.4-0.5,2.1C178.8,93.6,179.7,93.7,180.4,93.4L180.4,93.4z"/>
	</g>
</g>
<g>
	<path d="M234.2,130c-3.7,0-7.1-0.6-10.2-1.7c-3.1-1.1-5.7-2.8-7.9-5.1c-2.2-2.3-3.9-5.2-5.1-8.6c-1.2-3.4-1.8-7.4-1.8-11.8
		c0-4.2,0.6-8,1.8-11.3c1.2-3.3,2.9-6.2,5.1-8.6c2.1-2.3,4.8-4.1,7.9-5.3c3.1-1.2,6.5-1.9,10.2-1.9c1.8,0,3.4,0.1,5.1,0.4
		c1.6,0.3,3.2,0.6,4.6,1.1c1.2,0.4,2.5,0.8,3.9,1.5c1.4,0.6,2.6,1.2,3.5,1.6v8.4h-0.6c-0.9-0.8-1.8-1.5-2.7-2.2
		c-0.9-0.7-2.2-1.4-3.9-2.2c-1.4-0.7-3-1.3-4.9-1.8c-1.8-0.5-3.8-0.7-5.9-0.7c-5,0-9.1,1.9-12.2,5.7c-3.1,3.8-4.7,8.8-4.7,15.2
		c0,3.5,0.4,6.6,1.2,9.2c0.8,2.6,2,4.9,3.6,6.7c1.5,1.8,3.3,3.2,5.4,4.1c2.1,0.9,4.5,1.4,7.2,1.4c2,0,3.9-0.1,5.9-0.4
		c1.9-0.3,3.6-0.7,4.9-1.3v-13.5h-12.1v-6.1h19v22.9c-0.9,0.4-2.1,0.9-3.6,1.5c-1.5,0.6-2.9,1.1-4.2,1.4c-1.7,0.5-3.3,0.9-4.6,1.2
		C237.9,129.9,236.2,130,234.2,130z"/>
	<path d="M292.1,109.4c0,6.6-1.6,11.7-4.8,15.3c-3.2,3.6-7.4,5.4-12.7,5.4c-5.5,0-9.8-1.9-12.9-5.6c-3.1-3.7-4.7-8.8-4.7-15.1
		c0-6.6,1.6-11.7,4.8-15.3c3.2-3.6,7.5-5.4,12.7-5.4c5.3,0,9.5,1.8,12.7,5.4C290.6,97.7,292.1,102.8,292.1,109.4z M285.3,109.4
		c0-5.1-0.9-8.9-2.8-11.3c-1.9-2.5-4.5-3.7-7.9-3.7c-3.4,0-6.1,1.2-8,3.7c-1.9,2.5-2.8,6.3-2.8,11.3c0,4.9,0.9,8.7,2.8,11.2
		c1.9,2.5,4.5,3.8,8,3.8c3.4,0,6-1.2,7.9-3.7S285.3,114.4,285.3,109.4z"/>
	<path d="M331.2,109.4c0,6.6-1.6,11.7-4.8,15.3c-3.2,3.6-7.4,5.4-12.7,5.4c-5.5,0-9.8-1.9-12.9-5.6c-3.1-3.7-4.7-8.8-4.7-15.1
		c0-6.6,1.6-11.7,4.8-15.3c3.2-3.6,7.5-5.4,12.7-5.4c5.3,0,9.5,1.8,12.7,5.4C329.6,97.7,331.2,102.8,331.2,109.4z M324.4,109.4
		c0-5.1-0.9-8.9-2.8-11.3c-1.9-2.5-4.5-3.7-7.9-3.7c-3.4,0-6.1,1.2-8,3.7c-1.9,2.5-2.8,6.3-2.8,11.3c0,4.9,0.9,8.7,2.8,11.2
		c1.9,2.5,4.5,3.8,8,3.8c3.4,0,6-1.2,7.9-3.7S324.4,114.4,324.4,109.4z"/>
	<path d="M368.3,129h-6.6v-4c-1,0.9-1.9,1.6-2.7,2.1c-0.8,0.6-1.6,1.1-2.6,1.5c-0.9,0.4-1.9,0.8-2.9,1c-1,0.2-2.2,0.4-3.5,0.4
		c-2.1,0-4.1-0.4-5.9-1.3c-1.8-0.9-3.4-2.2-4.6-3.9c-1.3-1.7-2.3-3.9-3-6.4c-0.7-2.5-1.1-5.5-1.1-8.8c0-3.4,0.4-6.4,1.3-8.9
		c0.9-2.5,2.1-4.7,3.7-6.6c1.4-1.7,3.2-3.1,5.2-4c2-1,4.2-1.5,6.4-1.5c2,0,3.7,0.2,5.1,0.7c1.5,0.4,3,1.1,4.6,2v-17h6.6V129z
		 M361.7,119.4V96.8c-1.6-0.8-3.1-1.3-4.4-1.7c-1.3-0.3-2.7-0.5-4.2-0.5c-3.4,0-6.1,1.3-8,3.8c-1.9,2.5-2.9,6.2-2.9,11
		c0,4.6,0.7,8.2,2.2,10.6c1.5,2.4,3.8,3.7,7.1,3.7c1.7,0,3.5-0.4,5.2-1.2C358.5,121.8,360.1,120.8,361.7,119.4z"/>
	<path d="M396,109.3h-19.8v-6.4H396V109.3z"/>
	<path d="M435.6,129h-8.2l-13.5-18.1h-3.3V129H404V89.7h6.6v17.1c1.7,0,3.2-0.4,4.4-1.1c1.2-0.7,2.2-2,3.1-4c0.3-0.6,0.5-1.3,0.9-2
		s0.6-1.5,0.8-2c1-2.9,2.5-4.9,4.3-6.1s4.2-1.8,7.1-1.8h1.8v5.7h-1.5c-1.9,0-3.2,0.4-4.2,1.1c-0.9,0.8-1.7,2.2-2.3,4.2
		c-0.7,2-1.4,3.6-2.3,4.8c-0.9,1.1-1.9,2-3,2.6L435.6,129z"/>
	<path d="M461.8,124.8c-0.5,0.4-1.3,1-2.2,1.7c-0.9,0.7-1.8,1.3-2.6,1.7c-1.2,0.6-2.3,1.1-3.4,1.4c-1.1,0.3-2.6,0.5-4.6,0.5
		c-1.6,0-3.2-0.3-4.6-0.9s-2.7-1.5-3.8-2.6c-1.1-1.1-1.9-2.4-2.5-4s-0.9-3.3-0.9-5c0-2.7,0.6-5,1.7-6.9c1.1-1.9,3-3.4,5.4-4.6
		c2.2-1,4.8-1.7,7.8-2.1s6.2-0.7,9.7-0.9v-1.3c0-1.5-0.2-2.8-0.7-3.7s-1.1-1.7-2-2.2c-0.8-0.5-1.9-0.9-3.1-1.1s-2.5-0.3-3.8-0.3
		c-1.5,0-3.3,0.2-5.4,0.7s-4.1,1.1-6.2,2h-0.4v-6.7c1.2-0.4,3-0.7,5.2-1.2s4.5-0.6,6.8-0.6c2.7,0,5,0.2,6.8,0.6s3.5,1.2,5,2.3
		c1.4,1.1,2.5,2.5,3.2,4.2c0.7,1.7,1.1,3.8,1.1,6.3V129h-6.6V124.8z M461.8,119.3v-10.9c-1.6,0.1-3.6,0.3-6,0.6s-4.3,0.6-5.8,1
		c-1.8,0.5-3.2,1.4-4.4,2.5c-1.1,1.1-1.7,2.7-1.7,4.7c0,2.3,0.6,3.9,1.9,5.1c1.3,1.1,3.1,1.7,5.6,1.7c2.1,0,4-0.5,5.7-1.4
		C458.7,121.8,460.3,120.6,461.8,119.3z"/>
	<path d="M493.2,129.9c-2.7,0-5.2-0.4-7.4-1.2s-4.2-2.1-5.8-3.8s-2.9-3.8-3.8-6.4s-1.3-5.6-1.3-9.1c0-3.4,0.5-6.4,1.4-8.9
		c0.9-2.5,2.2-4.6,3.7-6.3c1.5-1.7,3.5-3,5.8-4c2.3-0.9,4.8-1.4,7.4-1.4c2.2,0,4.2,0.3,6.2,0.9c2,0.6,3.8,1.3,5.4,2.1v7.4h-0.4
		c-0.5-0.4-1.1-0.9-1.8-1.4c-0.7-0.5-1.6-1-2.7-1.6c-0.9-0.5-2-0.9-3.2-1.2s-2.4-0.5-3.6-0.5c-3.4,0-6.2,1.3-8.2,3.9
		c-2.1,2.6-3.1,6.3-3.1,11c0,4.6,1,8.3,3,10.8c2,2.6,4.8,3.9,8.3,3.9c2.2,0,4.2-0.4,6.2-1.3c1.9-0.9,3.7-2,5.2-3.4h0.4v7.4
		c-0.7,0.3-1.5,0.7-2.5,1.1c-1,0.4-1.9,0.8-2.7,1c-1.1,0.3-2.1,0.6-3,0.8S494.6,129.9,493.2,129.9z"/>
	<path d="M526.5,129.9c-2.7,0-5.2-0.4-7.4-1.2s-4.2-2.1-5.8-3.8s-2.9-3.8-3.8-6.4s-1.3-5.6-1.3-9.1c0-3.4,0.5-6.4,1.4-8.9
		c0.9-2.5,2.2-4.6,3.7-6.3c1.5-1.7,3.5-3,5.8-4c2.3-0.9,4.8-1.4,7.4-1.4c2.2,0,4.2,0.3,6.2,0.9c2,0.6,3.8,1.3,5.4,2.1v7.4h-0.4
		c-0.5-0.4-1.1-0.9-1.8-1.4c-0.7-0.5-1.6-1-2.7-1.6c-0.9-0.5-2-0.9-3.2-1.2s-2.4-0.5-3.6-0.5c-3.4,0-6.2,1.3-8.2,3.9
		c-2.1,2.6-3.1,6.3-3.1,11c0,4.6,1,8.3,3,10.8c2,2.6,4.8,3.9,8.3,3.9c2.2,0,4.2-0.4,6.2-1.3c1.9-0.9,3.7-2,5.2-3.4h0.4v7.4
		c-0.7,0.3-1.5,0.7-2.5,1.1c-1,0.4-1.9,0.8-2.7,1c-1.1,0.3-2.1,0.6-3,0.8S527.9,129.9,526.5,129.9z"/>
	<path d="M566,124.8c-0.5,0.4-1.3,1-2.2,1.7c-0.9,0.7-1.8,1.3-2.6,1.7c-1.2,0.6-2.3,1.1-3.4,1.4c-1.1,0.3-2.6,0.5-4.6,0.5
		c-1.6,0-3.2-0.3-4.6-0.9s-2.7-1.5-3.8-2.6c-1.1-1.1-1.9-2.4-2.5-4s-0.9-3.3-0.9-5c0-2.7,0.6-5,1.7-6.9c1.1-1.9,3-3.4,5.4-4.6
		c2.2-1,4.8-1.7,7.8-2.1s6.2-0.7,9.7-0.9v-1.3c0-1.5-0.2-2.8-0.7-3.7s-1.1-1.7-2-2.2c-0.8-0.5-1.9-0.9-3.1-1.1s-2.5-0.3-3.8-0.3
		c-1.5,0-3.3,0.2-5.4,0.7s-4.1,1.1-6.2,2h-0.4v-6.7c1.2-0.4,3-0.7,5.2-1.2s4.5-0.6,6.8-0.6c2.7,0,5,0.2,6.8,0.6s3.5,1.2,5,2.3
		c1.4,1.1,2.5,2.5,3.2,4.2c0.7,1.7,1.1,3.8,1.1,6.3V129H566V124.8z M566,119.3v-10.9c-1.6,0.1-3.6,0.3-6,0.6s-4.3,0.6-5.8,1
		c-1.8,0.5-3.2,1.4-4.4,2.5c-1.1,1.1-1.7,2.7-1.7,4.7c0,2.3,0.6,3.9,1.9,5.1c1.3,1.1,3.1,1.7,5.6,1.7c2.1,0,4-0.5,5.7-1.4
		C563,121.8,564.5,120.6,566,119.3z"/>
</g>
<g>
	<path d="M232.2,164.8c1,1.1,1.8,2.6,2.3,4.3s0.8,3.6,0.8,5.8c0,2.1-0.3,4-0.8,5.7s-1.3,3.1-2.3,4.3c-1.1,1.2-2.3,2.1-3.7,2.7
		s-3,0.9-4.7,0.9c-1.8,0-3.4-0.3-4.8-0.9s-2.6-1.5-3.7-2.7c-1-1.2-1.8-2.6-2.3-4.3s-0.8-3.6-0.8-5.8c0-2.2,0.3-4.1,0.8-5.8
		s1.3-3.1,2.3-4.3c1-1.2,2.2-2,3.6-2.6s3-0.9,4.8-0.9c1.8,0,3.4,0.3,4.8,0.9S231.2,163.7,232.2,164.8z M231.7,174.9
		c0-1.7-0.2-3.3-0.6-4.6s-0.9-2.4-1.6-3.3c-0.7-0.9-1.5-1.6-2.5-2s-2.1-0.7-3.3-0.7c-1.3,0-2.4,0.2-3.3,0.7s-1.8,1.1-2.5,2
		c-0.7,0.9-1.2,2-1.6,3.4s-0.6,2.9-0.6,4.6c0,3.4,0.7,6.1,2.2,7.9s3.4,2.7,5.8,2.7s4.4-0.9,5.8-2.7S231.7,178.4,231.7,174.9z"/>
	<path d="M252.8,171.3c0.8,0.8,1.4,1.8,1.8,2.9s0.6,2.6,0.6,4.1c0,1.5-0.2,2.9-0.7,4.2s-1.1,2.4-2,3.2c-0.8,0.9-1.8,1.6-2.8,2.1
		s-2.1,0.7-3.3,0.7c-1.2,0-2.4-0.2-3.4-0.6s-1.9-1.1-2.6-2c-0.9-1.1-1.6-2.5-2-4.2s-0.7-3.8-0.7-6.2c0-0.9,0-1.8,0.1-2.7
		s0.2-2,0.5-3.3c0.2-1.1,0.6-2.2,0.9-3.1s0.9-1.8,1.6-2.5c0.8-0.9,1.9-1.6,3.3-2.1s3.1-0.9,5.3-1.1c0.8-0.1,1.6-0.1,2.5-0.2
		s1.6-0.1,2-0.1v3c-0.6,0-1.3,0.1-2,0.1s-1.5,0.1-2.4,0.2c-1.2,0.1-2.4,0.3-3.7,0.6s-2.3,0.8-2.9,1.5c-0.5,0.5-0.9,1.2-1.2,2.2
		s-0.5,2-0.6,3.1c0.9-0.6,1.8-1.1,2.8-1.6s2.1-0.6,3.2-0.6c1.1,0,2.1,0.2,3,0.5S252,170.5,252.8,171.3z M251.8,178.5
		c0-2.1-0.5-3.7-1.4-4.8s-2.3-1.7-4-1.7c-0.9,0-1.9,0.2-2.8,0.5s-1.7,0.7-2.5,1.3c0,0.3,0,0.6-0.1,1s0,0.8,0,1.1c0,2,0.2,3.7,0.5,5
		s0.8,2.3,1.4,3c0.5,0.7,1.1,1.1,1.7,1.4s1.2,0.4,1.9,0.4c1.7,0,3-0.6,3.9-1.9S251.8,180.7,251.8,178.5z"/>
	<path d="M274.8,178.2c0,3.3-0.8,5.9-2.4,7.7s-3.7,2.7-6.4,2.7c-2.7,0-4.9-0.9-6.4-2.8s-2.3-4.4-2.3-7.6c0-3.3,0.8-5.8,2.4-7.6
		s3.7-2.7,6.4-2.7c2.6,0,4.8,0.9,6.4,2.7S274.8,174.9,274.8,178.2z M271.4,178.2c0-2.5-0.5-4.4-1.4-5.7s-2.2-1.9-4-1.9
		c-1.7,0-3,0.6-4,1.9s-1.4,3.1-1.4,5.7c0,2.5,0.5,4.3,1.4,5.6s2.3,1.9,4,1.9c1.7,0,3-0.6,3.9-1.9S271.4,180.7,271.4,178.2z"/>
	<path d="M294.7,177.7c0,3.3-0.8,5.9-2.3,7.8s-3.5,2.9-5.9,2.9c-1,0-1.8-0.1-2.6-0.3s-1.5-0.6-2.3-1v8.2h-3.3v-26.9h3.3v2.1
		c0.8-0.7,1.7-1.4,2.7-1.9s2.1-0.7,3.3-0.7c2.3,0,4,0.9,5.3,2.7S294.7,174.7,294.7,177.7z M291.3,178c0-2.2-0.4-4-1.1-5.2
		s-1.9-1.9-3.5-1.9c-0.9,0-1.8,0.2-2.7,0.6s-1.7,1-2.5,1.6v11.1c0.9,0.4,1.6,0.7,2.2,0.9s1.3,0.2,2.1,0.2c1.7,0,3-0.6,4-1.9
		S291.3,180.4,291.3,178z"/>
	<path d="M313.5,168.4L303,195.2h-3.5l3.5-8.2l-7.1-18.7h3.6l5.4,14.5l5.3-14.5H313.5z"/>
	<path d="M332.9,192.7h-3.1v-4.8h-12.9v4.8h-3.1v-7.5h1.3c1.1-1.8,2-4.2,2.7-7.2s1.1-6.2,1.1-9.7h12v16.8h2V192.7z M327.6,185.2v-14
		H322c-0.2,2.9-0.6,5.6-1.2,8s-1.5,4.4-2.5,6H327.6z"/>
	<path d="M352.3,178.2c0,3.3-0.8,5.9-2.4,7.7s-3.7,2.7-6.4,2.7c-2.7,0-4.9-0.9-6.4-2.8s-2.3-4.4-2.3-7.6c0-3.3,0.8-5.8,2.4-7.6
		s3.7-2.7,6.4-2.7c2.6,0,4.8,0.9,6.4,2.7S352.3,174.9,352.3,178.2z M348.9,178.2c0-2.5-0.5-4.4-1.4-5.7s-2.2-1.9-4-1.9
		c-1.7,0-3,0.6-4,1.9s-1.4,3.1-1.4,5.7c0,2.5,0.5,4.3,1.4,5.6s2.3,1.9,4,1.9c1.7,0,3-0.6,3.9-1.9S348.9,180.7,348.9,178.2z"/>
	<path d="M371.1,182.1c0,0.9-0.2,1.8-0.5,2.5s-0.9,1.3-1.5,1.8c-0.8,0.6-1.6,1-2.5,1.3s-1.9,0.3-3.1,0.3h-7.7v-19.6h7.2
		c1.4,0,2.5,0,3.2,0.1s1.3,0.3,2,0.7c0.7,0.4,1.2,0.9,1.5,1.5s0.5,1.4,0.5,2.2c0,0.9-0.3,1.8-0.8,2.5s-1.2,1.3-2.1,1.7l0.1,0.1
		c1.1,0.3,2,0.8,2.7,1.6S371.1,180.8,371.1,182.1z M366.7,173.4c0-0.4-0.1-0.8-0.2-1.2s-0.4-0.6-0.8-0.8c-0.4-0.2-0.9-0.4-1.4-0.4
		s-1.2-0.1-2.2-0.1h-3.1v5.4h3.8c0.8,0,1.4,0,1.7-0.1s0.7-0.2,1.1-0.5c0.4-0.2,0.7-0.6,0.8-0.9S366.7,174,366.7,173.4z M367.7,182.1
		c0-0.7-0.1-1.2-0.3-1.6s-0.6-0.8-1.3-1.1c-0.4-0.2-0.8-0.3-1.3-0.4s-1.1-0.1-2-0.1h-3.9v6.4h2.9c1.2,0,2.1,0,2.8-0.1
		s1.2-0.3,1.7-0.6c0.5-0.3,0.8-0.7,1.1-1.1S367.7,182.7,367.7,182.1z"/>
	<path d="M385.5,185.9c-0.3,0.2-0.6,0.5-1.1,0.8s-0.9,0.6-1.3,0.9c-0.6,0.3-1.2,0.5-1.7,0.7s-1.3,0.2-2.3,0.2
		c-0.8,0-1.6-0.2-2.3-0.5s-1.4-0.7-1.9-1.3c-0.5-0.5-0.9-1.2-1.3-2s-0.5-1.6-0.5-2.5c0-1.4,0.3-2.5,0.9-3.5s1.5-1.7,2.7-2.3
		c1.1-0.5,2.4-0.9,3.9-1s3.1-0.3,4.9-0.4v-0.6c0-0.8-0.1-1.4-0.4-1.9s-0.6-0.8-1-1.1c-0.4-0.3-0.9-0.4-1.5-0.5s-1.2-0.1-1.9-0.1
		c-0.8,0-1.7,0.1-2.7,0.3s-2.1,0.6-3.1,1h-0.2v-3.4c0.6-0.2,1.5-0.4,2.6-0.6s2.3-0.3,3.4-0.3c1.3,0,2.5,0.1,3.4,0.3s1.8,0.6,2.5,1.1
		c0.7,0.5,1.2,1.2,1.6,2.1s0.5,1.9,0.5,3.1V188h-3.3V185.9z M385.5,183.2v-5.4c-0.8,0.1-1.8,0.2-3,0.3s-2.2,0.3-2.9,0.5
		c-0.9,0.3-1.6,0.7-2.2,1.2s-0.9,1.3-0.9,2.3c0,1.1,0.3,2,0.9,2.5s1.6,0.9,2.8,0.9c1,0,2-0.2,2.8-0.7S384.8,183.8,385.5,183.2z"/>
	<path d="M408.9,188h-3.3v-8.8h-8.9v8.8h-3.3v-19.6h3.3v7.9h8.9v-7.9h3.3V188z"/>
	<path d="M429.2,188h-3.3v-14.6l-9.2,14.6h-3v-19.6h3.3v14.4l9.1-14.4h3.1V188z"/>
	<path d="M442.5,188.5c-3.1,0-5.6-0.9-7.3-2.6s-2.6-4.3-2.6-7.5c0-3.2,0.8-5.7,2.5-7.6s3.9-2.8,6.6-2.8c1.2,0,2.3,0.2,3.2,0.5
		s1.8,0.9,2.5,1.7s1.2,1.7,1.6,2.8s0.6,2.4,0.6,4v1.8H436c0,2.3,0.6,4,1.7,5.2s2.7,1.8,4.8,1.8c0.7,0,1.4-0.1,2.1-0.2
		s1.3-0.4,1.9-0.6c0.6-0.3,1.1-0.5,1.5-0.8s0.8-0.5,1-0.7h0.2v3.6c-0.4,0.2-0.9,0.3-1.4,0.6s-1.1,0.4-1.5,0.5
		c-0.6,0.2-1.2,0.3-1.7,0.4S443.3,188.5,442.5,188.5z M446.4,176c0-0.9-0.1-1.7-0.3-2.3s-0.5-1.2-0.8-1.6c-0.4-0.5-0.9-0.9-1.5-1.1
		s-1.4-0.4-2.2-0.4c-0.9,0-1.6,0.1-2.2,0.4s-1.2,0.6-1.7,1.2c-0.5,0.5-0.9,1.1-1.1,1.7s-0.4,1.4-0.5,2.2H446.4z"/>
	<path d="M481,192.7H478v-4.8H465v4.8h-3.1v-7.5h1.3c1.1-1.8,2-4.2,2.7-7.2s1.1-6.2,1.1-9.7h12v16.8h2V192.7z M475.8,185.2v-14h-5.6
		c-0.2,2.9-0.6,5.6-1.2,8s-1.5,4.4-2.5,6H475.8z"/>
	<path d="M499.5,188h-3.3v-16.9h-6.8c0,1-0.1,1.9-0.1,2.8s-0.1,1.7-0.1,2.4c-0.1,1.8-0.2,3.4-0.4,4.6s-0.4,2.2-0.6,3
		c-0.3,0.8-0.5,1.4-0.9,1.8s-0.7,0.8-1,1.2c-0.4,0.4-0.8,0.6-1.3,0.8s-1,0.3-1.5,0.3c-0.2,0-0.4,0-0.7,0s-0.5,0-0.6,0v-2.9h0.2
		c0.1,0,0.2,0,0.3,0s0.2,0,0.3,0c0.3,0,0.6,0,0.8-0.1s0.5-0.2,0.7-0.5c0.6-0.6,1-1.6,1.3-3s0.5-3.4,0.6-6c0-1,0.1-2.1,0.1-3.4
		s0.1-2.6,0.1-3.8h12.9V188z"/>
	<path d="M518.5,188h-3.3v-7.8h-3.3l-5.8,7.8h-3.8l6.3-8.1c-1.6-0.5-2.8-1.2-3.6-2.1s-1.1-2.2-1.1-3.8c0-1,0.2-1.8,0.6-2.6
		s1-1.4,1.7-1.9c0.6-0.4,1.3-0.7,2.2-0.9s1.9-0.3,3-0.3h7.1V188z M515.2,177.6V171h-3.6c-0.8,0-1.4,0-1.8,0.1s-0.9,0.2-1.3,0.5
		c-0.4,0.3-0.7,0.6-1,1s-0.3,0.9-0.3,1.4c0,0.6,0.1,1.2,0.2,1.6s0.4,0.8,0.8,1.1c0.4,0.4,0.9,0.6,1.5,0.7s1.2,0.2,1.9,0.2H515.2z"/>
	<path d="M549.9,182.1c0,0.9-0.2,1.8-0.5,2.5s-0.9,1.3-1.5,1.8c-0.8,0.6-1.6,1-2.5,1.3s-1.9,0.3-3.1,0.3h-7.7v-19.6h7.2
		c1.4,0,2.5,0,3.2,0.1s1.3,0.3,2,0.7c0.7,0.4,1.2,0.9,1.5,1.5s0.5,1.4,0.5,2.2c0,0.9-0.3,1.8-0.8,2.5s-1.2,1.3-2.1,1.7l0.1,0.1
		c1.1,0.3,2,0.8,2.7,1.6S549.9,180.8,549.9,182.1z M545.5,173.4c0-0.4-0.1-0.8-0.2-1.2s-0.4-0.6-0.8-0.8c-0.4-0.2-0.9-0.4-1.4-0.4
		s-1.2-0.1-2.2-0.1h-3.1v5.4h3.8c0.8,0,1.4,0,1.7-0.1s0.7-0.2,1.1-0.5c0.4-0.2,0.7-0.6,0.8-0.9S545.5,174,545.5,173.4z M546.5,182.1
		c0-0.7-0.1-1.2-0.3-1.6s-0.6-0.8-1.3-1.1c-0.4-0.2-0.8-0.3-1.3-0.4s-1.1-0.1-2-0.1h-3.9v6.4h2.9c1.2,0,2.1,0,2.8-0.1
		s1.2-0.3,1.7-0.6c0.5-0.3,0.8-0.7,1.1-1.1S546.5,182.7,546.5,182.1z"/>
	<path d="M564.4,185.9c-0.3,0.2-0.6,0.5-1.1,0.8s-0.9,0.6-1.3,0.9c-0.6,0.3-1.2,0.5-1.7,0.7s-1.3,0.2-2.3,0.2
		c-0.8,0-1.6-0.2-2.3-0.5s-1.4-0.7-1.9-1.3c-0.5-0.5-0.9-1.2-1.3-2s-0.5-1.6-0.5-2.5c0-1.4,0.3-2.5,0.9-3.5s1.5-1.7,2.7-2.3
		c1.1-0.5,2.4-0.9,3.9-1s3.1-0.3,4.9-0.4v-0.6c0-0.8-0.1-1.4-0.4-1.9s-0.6-0.8-1-1.1c-0.4-0.3-0.9-0.4-1.5-0.5s-1.2-0.1-1.9-0.1
		c-0.8,0-1.7,0.1-2.7,0.3s-2.1,0.6-3.1,1h-0.2v-3.4c0.6-0.2,1.5-0.4,2.6-0.6s2.3-0.3,3.4-0.3c1.3,0,2.5,0.1,3.4,0.3s1.8,0.6,2.5,1.1
		c0.7,0.5,1.2,1.2,1.6,2.1s0.5,1.9,0.5,3.1V188h-3.3V185.9z M564.4,183.2v-5.4c-0.8,0.1-1.8,0.2-3,0.3s-2.2,0.3-2.9,0.5
		c-0.9,0.3-1.6,0.7-2.2,1.2s-0.9,1.3-0.9,2.3c0,1.1,0.3,2,0.9,2.5s1.6,0.9,2.8,0.9c1,0,2-0.2,2.8-0.7S563.6,183.8,564.4,183.2z"/>
	<path d="M595.5,188h-23.2v-19.6h3.3v16.8h6.7v-16.8h3.3v16.8h6.7v-16.8h3.3V188z"/>
	<path d="M608.8,188.5c-3.1,0-5.6-0.9-7.3-2.6s-2.6-4.3-2.6-7.5c0-3.2,0.8-5.7,2.5-7.6s3.9-2.8,6.6-2.8c1.2,0,2.3,0.2,3.2,0.5
		s1.8,0.9,2.5,1.7s1.2,1.7,1.6,2.8s0.6,2.4,0.6,4v1.8h-13.6c0,2.3,0.6,4,1.7,5.2s2.7,1.8,4.8,1.8c0.7,0,1.4-0.1,2.1-0.2
		s1.3-0.4,1.9-0.6c0.6-0.3,1.1-0.5,1.5-0.8s0.8-0.5,1-0.7h0.2v3.6c-0.4,0.2-0.9,0.3-1.4,0.6s-1.1,0.4-1.5,0.5
		c-0.6,0.2-1.2,0.3-1.7,0.4S609.6,188.5,608.8,188.5z M612.7,176c0-0.9-0.1-1.7-0.3-2.3s-0.5-1.2-0.8-1.6c-0.4-0.5-0.9-0.9-1.5-1.1
		s-1.4-0.4-2.2-0.4c-0.9,0-1.6,0.1-2.2,0.4s-1.2,0.6-1.7,1.2c-0.5,0.5-0.9,1.1-1.1,1.7s-0.4,1.4-0.5,2.2H612.7z"/>
	<path d="M631.8,171.3h-9.2V188h-3.3v-19.6h12.5V171.3z"/>
	<path d="M650.4,178.2c0,3.3-0.8,5.9-2.4,7.7s-3.7,2.7-6.4,2.7c-2.7,0-4.9-0.9-6.4-2.8s-2.3-4.4-2.3-7.6c0-3.3,0.8-5.8,2.4-7.6
		s3.7-2.7,6.4-2.7c2.6,0,4.8,0.9,6.4,2.7S650.4,174.9,650.4,178.2z M647,178.2c0-2.5-0.5-4.4-1.4-5.7s-2.2-1.9-4-1.9
		c-1.7,0-3,0.6-4,1.9s-1.4,3.1-1.4,5.7c0,2.5,0.5,4.3,1.4,5.6s2.3,1.9,4,1.9c1.7,0,3-0.6,3.9-1.9S647,180.7,647,178.2z"/>
	<path d="M678.9,171.3c0.8,0.8,1.4,1.8,1.8,2.9s0.6,2.6,0.6,4.1c0,1.5-0.2,2.9-0.7,4.2s-1.1,2.4-2,3.2c-0.8,0.9-1.8,1.6-2.8,2.1
		s-2.1,0.7-3.3,0.7c-1.2,0-2.4-0.2-3.4-0.6s-1.9-1.1-2.6-2c-0.9-1.1-1.6-2.5-2-4.2s-0.7-3.8-0.7-6.2c0-0.9,0-1.8,0.1-2.7
		s0.2-2,0.5-3.3c0.2-1.1,0.6-2.2,0.9-3.1s0.9-1.8,1.6-2.5c0.8-0.9,1.9-1.6,3.3-2.1s3.1-0.9,5.3-1.1c0.8-0.1,1.6-0.1,2.5-0.2
		s1.6-0.1,2-0.1v3c-0.6,0-1.3,0.1-2,0.1s-1.5,0.1-2.4,0.2c-1.2,0.1-2.4,0.3-3.7,0.6s-2.3,0.8-2.9,1.5c-0.5,0.5-0.9,1.2-1.2,2.2
		s-0.5,2-0.6,3.1c0.9-0.6,1.8-1.1,2.8-1.6s2.1-0.6,3.2-0.6c1.1,0,2.1,0.2,3,0.5S678.2,170.5,678.9,171.3z M678,178.5
		c0-2.1-0.5-3.7-1.4-4.8s-2.3-1.7-4-1.7c-0.9,0-1.9,0.2-2.8,0.5s-1.7,0.7-2.5,1.3c0,0.3,0,0.6-0.1,1s0,0.8,0,1.1c0,2,0.2,3.7,0.5,5
		s0.8,2.3,1.4,3c0.5,0.7,1.1,1.1,1.7,1.4s1.2,0.4,1.9,0.4c1.7,0,3-0.6,3.9-1.9S678,180.7,678,178.5z"/>
	<path d="M700.3,188H697v-14.6l-9.2,14.6h-3v-19.6h3.3v14.4l9.1-14.4h3.1V188z"/>
	<path d="M718.1,182.6c0,1.1-0.2,2-0.7,2.8s-1.1,1.4-1.8,1.8c-0.7,0.4-1.5,0.8-2.4,1s-1.8,0.3-2.7,0.3c-1.3,0-2.5-0.1-3.7-0.4
		s-2.3-0.7-3.4-1.2v-3.7h0.2c0.8,0.7,1.8,1.3,3,1.7s2.4,0.6,3.6,0.6c0.5,0,1.1-0.1,1.7-0.2s1.1-0.3,1.5-0.5c0.5-0.3,0.9-0.7,1.2-1.1
		s0.3-0.9,0.3-1.5c0-0.7-0.1-1.3-0.4-1.7s-0.6-0.7-1.1-1s-1-0.3-1.5-0.4s-1.2-0.1-1.8-0.1h-2.3v-2.8h1.8c0.4,0,1,0,1.7,0
		s1.2-0.1,1.6-0.3c0.5-0.2,0.9-0.5,1.2-0.8s0.5-0.9,0.5-1.7c0-0.6-0.1-1-0.4-1.4s-0.6-0.6-1-0.8c-0.4-0.2-0.8-0.4-1.3-0.4
		s-0.9-0.1-1.4-0.1c-1.1,0-2.2,0.2-3.2,0.5s-1.9,0.8-2.6,1.4h-0.2V169c0.8-0.3,1.8-0.6,2.8-0.8s2.1-0.3,3.1-0.3
		c0.8,0,1.7,0.1,2.5,0.3s1.7,0.5,2.5,0.9c0.7,0.4,1.3,0.9,1.8,1.6s0.7,1.5,0.7,2.6c0,1.1-0.3,2-0.9,2.8s-1.4,1.3-2.4,1.6v0.1
		c1.1,0.4,2,0.9,2.7,1.7S718.1,181.3,718.1,182.6z"/>
	<path d="M737.1,188h-3.3v-8.8h-8.9v8.8h-3.3v-19.6h3.3v7.9h8.9v-7.9h3.3V188z"/>
	<path d="M750.3,188.5c-3.1,0-5.6-0.9-7.3-2.6s-2.6-4.3-2.6-7.5c0-3.2,0.8-5.7,2.5-7.6s3.9-2.8,6.6-2.8c1.2,0,2.3,0.2,3.2,0.5
		s1.8,0.9,2.5,1.7s1.2,1.7,1.6,2.8s0.6,2.4,0.6,4v1.8h-13.6c0,2.3,0.6,4,1.7,5.2s2.7,1.8,4.8,1.8c0.7,0,1.4-0.1,2.1-0.2
		s1.3-0.4,1.9-0.6c0.6-0.3,1.1-0.5,1.5-0.8s0.8-0.5,1-0.7h0.2v3.6c-0.4,0.2-0.9,0.3-1.4,0.6s-1.1,0.4-1.5,0.5
		c-0.6,0.2-1.2,0.3-1.7,0.4S751.1,188.5,750.3,188.5z M754.2,176c0-0.9-0.1-1.7-0.3-2.3s-0.5-1.2-0.8-1.6c-0.4-0.5-0.9-0.9-1.5-1.1
		s-1.4-0.4-2.2-0.4c-0.9,0-1.6,0.1-2.2,0.4s-1.2,0.6-1.7,1.2c-0.5,0.5-0.9,1.1-1.1,1.7s-0.4,1.4-0.5,2.2H754.2z"/>
	<path d="M768.6,188.4c-1.3,0-2.6-0.2-3.7-0.6s-2.1-1-2.9-1.9s-1.4-1.9-1.9-3.2s-0.7-2.8-0.7-4.5c0-1.7,0.2-3.2,0.7-4.5
		s1.1-2.3,1.9-3.2s1.7-1.5,2.9-2s2.4-0.7,3.7-0.7c1.1,0,2.1,0.2,3.1,0.5s1.9,0.7,2.7,1.1v3.7h-0.2c-0.2-0.2-0.5-0.4-0.9-0.7
		s-0.8-0.5-1.3-0.8c-0.5-0.2-1-0.4-1.6-0.6s-1.2-0.3-1.8-0.3c-1.7,0-3.1,0.6-4.1,1.9s-1.6,3.1-1.6,5.5c0,2.3,0.5,4.1,1.5,5.4
		s2.4,1.9,4.2,1.9c1.1,0,2.1-0.2,3.1-0.7s1.8-1,2.6-1.7h0.2v3.7c-0.3,0.2-0.7,0.3-1.2,0.6s-0.9,0.4-1.3,0.5
		c-0.6,0.2-1.1,0.3-1.5,0.4S769.3,188.4,768.6,188.4z"/>
	<path d="M788.4,185.9c-0.3,0.2-0.6,0.5-1.1,0.8s-0.9,0.6-1.3,0.9c-0.6,0.3-1.2,0.5-1.7,0.7s-1.3,0.2-2.3,0.2
		c-0.8,0-1.6-0.2-2.3-0.5s-1.4-0.7-1.9-1.3c-0.5-0.5-0.9-1.2-1.3-2s-0.5-1.6-0.5-2.5c0-1.4,0.3-2.5,0.9-3.5s1.5-1.7,2.7-2.3
		c1.1-0.5,2.4-0.9,3.9-1s3.1-0.3,4.9-0.4v-0.6c0-0.8-0.1-1.4-0.4-1.9s-0.6-0.8-1-1.1c-0.4-0.3-0.9-0.4-1.5-0.5s-1.2-0.1-1.9-0.1
		c-0.8,0-1.7,0.1-2.7,0.3s-2.1,0.6-3.1,1h-0.2v-3.4c0.6-0.2,1.5-0.4,2.6-0.6s2.3-0.3,3.4-0.3c1.3,0,2.5,0.1,3.4,0.3s1.8,0.6,2.5,1.1
		c0.7,0.5,1.2,1.2,1.6,2.1s0.5,1.9,0.5,3.1V188h-3.3V185.9z M788.4,183.2v-5.4c-0.8,0.1-1.8,0.2-3,0.3s-2.2,0.3-2.9,0.5
		c-0.9,0.3-1.6,0.7-2.2,1.2s-0.9,1.3-0.9,2.3c0,1.1,0.3,2,0.9,2.5s1.6,0.9,2.8,0.9c1,0,2-0.2,2.8-0.7S787.6,183.8,788.4,183.2z"/>
</g>
</svg>
